<svg id="LTTS_Logo" xmlns="http://www.w3.org/2000/svg" width="309.106" height="46.319" viewBox="0 0 309.106 46.319">
  <path id="Path_2" data-name="Path 2" d="M117.08,56.1A23.16,23.16,0,1,1,93.928,79.231,23.215,23.215,0,0,1,117.08,56.1m-3.2,43.173,9.875-17.151-6.679.005,3.316-5.762,15.693,0-3.326,5.775-5.672-.017L117.08,99.531a20.268,20.268,0,1,0,0-40.536,18.729,18.729,0,0,0-2.389.153l-9.962,17.213H117.08l-3.345,5.756H98.067l12.778-22.126a20.254,20.254,0,0,0,3.038,39.277" transform="translate(-93.928 -56.095)" fill="#004b87" fill-rule="evenodd"/>
  <path id="Path_3" data-name="Path 3" d="M222.4,104.381h9.152l.531-2.433h-6.069l2.767-13.026h-3.1Zm20.737,0h3.324l-1.8-2.608a8.788,8.788,0,0,0,1.311-1.72,9.938,9.938,0,0,0,.88-1.964,11.253,11.253,0,0,0,.468-2.1h-2.7a5.849,5.849,0,0,1-.2,1.319,7.827,7.827,0,0,1-.473,1.252,9.391,9.391,0,0,1-.677,1.147L241.037,96.5a11.928,11.928,0,0,0,1.5-.648,6.385,6.385,0,0,0,1.287-.873,3.835,3.835,0,0,0,.9-1.192,3.631,3.631,0,0,0,.338-1.6,3.071,3.071,0,0,0-.268-1.307,3.151,3.151,0,0,0-.705-.988,4.153,4.153,0,0,0-1-.692,5.09,5.09,0,0,0-1.148-.4,4.935,4.935,0,0,0-1.149-.134,5.942,5.942,0,0,0-1.714.241,4.517,4.517,0,0,0-1.48.723,3.565,3.565,0,0,0-1.045,1.219,3.8,3.8,0,0,0-.394,1.739,4.1,4.1,0,0,0,.147,1.172,3.544,3.544,0,0,0,.383.89,8.408,8.408,0,0,0,.557.815,8.3,8.3,0,0,0-1.618.681,5.862,5.862,0,0,0-1.352,1.016,4.535,4.535,0,0,0-.935,1.37,4.621,4.621,0,0,0-.048,3.395,3.738,3.738,0,0,0,.811,1.238,4.209,4.209,0,0,0,1.2.847,6.116,6.116,0,0,0,1.466.489,7.973,7.973,0,0,0,2.731.077,9.112,9.112,0,0,0,1.145-.231,8.138,8.138,0,0,0,1.062-.357,5.121,5.121,0,0,0,.875-.48Zm-1.862-2.809a3.583,3.583,0,0,1-.773.426,5.09,5.09,0,0,1-.9.257,4.9,4.9,0,0,1-.936.088,4.14,4.14,0,0,1-1.037-.121,2.461,2.461,0,0,1-.861-.389,1.82,1.82,0,0,1-.589-.7,2.317,2.317,0,0,1-.216-1.027,2.234,2.234,0,0,1,.806-1.76,4.437,4.437,0,0,1,.82-.536,9.572,9.572,0,0,1,.944-.406Zm1.219-9.393a1.851,1.851,0,0,1-.26.962,2.483,2.483,0,0,1-.657.7,4.214,4.214,0,0,1-.867.472,7.306,7.306,0,0,1-.9.3,6.467,6.467,0,0,1-.387-.6,3.788,3.788,0,0,1-.307-.667,2.147,2.147,0,0,1-.125-.676,1.911,1.911,0,0,1,.258-1,1.675,1.675,0,0,1,.7-.621,2.238,2.238,0,0,1,1-.214,2.025,2.025,0,0,1,.738.115,1.23,1.23,0,0,1,.581.423,1.337,1.337,0,0,1,.231.812m5.229-.823h4.364l-2.815,13.025h3.235l2.814-13.025h4.363l.51-2.434h-11.94Zm18.917,0h4.363L268.2,104.381h3.234l2.814-13.025h4.364l.509-2.434H267.177Zm20.4,8.242c.091-.421.16-.841.212-1.266a10.631,10.631,0,0,0,.078-1.28,4.636,4.636,0,0,0-.587-2.417,3.6,3.6,0,0,0-1.625-1.445,6.252,6.252,0,0,0-4.573-.093,6.12,6.12,0,0,0-1.79,1.04,6.873,6.873,0,0,0-1.381,1.547,7.36,7.36,0,0,0-1.211,3.981,5.771,5.771,0,0,0,.4,2.208,4.145,4.145,0,0,0,1.119,1.558,4.836,4.836,0,0,0,1.735.917,7.727,7.727,0,0,0,2.24.3,9.876,9.876,0,0,0,1.844-.187c.613-.126,1.211-.275,1.79-.456l.377-2.348a9.5,9.5,0,0,1-1.713.6,7.934,7.934,0,0,1-1.788.217,4.559,4.559,0,0,1-1.729-.285,2.1,2.1,0,0,1-1.07-.912,3.36,3.36,0,0,1-.367-1.686ZM279.4,97.561a6.483,6.483,0,0,1,.678-1.4,2.97,2.97,0,0,1,1.012-.942,3.11,3.11,0,0,1,1.524-.34,1.839,1.839,0,0,1,1.4.494,1.946,1.946,0,0,1,.477,1.412c0,.132,0,.261-.013.39s-.03.253-.053.384Zm18.983-4.41a10.578,10.578,0,0,0-1.369-.313,10.274,10.274,0,0,0-1.6-.129,7.146,7.146,0,0,0-2.78.536,6.13,6.13,0,0,0-2.123,1.48,6.553,6.553,0,0,0-1.353,2.227,8,8,0,0,0-.478,2.78,5.5,5.5,0,0,0,.6,2.584,4.27,4.27,0,0,0,1.683,1.714,5.276,5.276,0,0,0,2.566.62,10.637,10.637,0,0,0,1.453-.1,5.2,5.2,0,0,0,1.406-.433l.33-2.345a5.907,5.907,0,0,1-.806.312,6.063,6.063,0,0,1-.828.193,4.946,4.946,0,0,1-.777.066,2.819,2.819,0,0,1-1.258-.252,1.96,1.96,0,0,1-.772-.676,2.784,2.784,0,0,1-.39-.95,4.942,4.942,0,0,1-.106-1.088,5.2,5.2,0,0,1,.244-1.584,4.558,4.558,0,0,1,.714-1.4,3.519,3.519,0,0,1,1.163-1,3.361,3.361,0,0,1,1.581-.379,4.527,4.527,0,0,1,1.173.148,3.275,3.275,0,0,1,.993.428Zm-.307,11.23h2.969l1.215-5.737a10.3,10.3,0,0,1,.37-1.285,5.26,5.26,0,0,1,.594-1.17,2.921,2.921,0,0,1,.912-.849,2.626,2.626,0,0,1,1.318-.326,1.658,1.658,0,0,1,.839.2,1.411,1.411,0,0,1,.57.552,1.658,1.658,0,0,1,.206.838,7.329,7.329,0,0,1-.108,1.222c-.064.4-.144.783-.224,1.173l-1.111,5.38h2.97l1.2-5.54c.082-.351.165-.752.247-1.178a8.007,8.007,0,0,0,.129-1.3,3.994,3.994,0,0,0-.471-1.956,3.14,3.14,0,0,0-1.29-1.253,4.13,4.13,0,0,0-1.963-.448,4.227,4.227,0,0,0-1.225.19,4.525,4.525,0,0,0-1.09.494,5.659,5.659,0,0,0-.92.692h-.042l1.416-6.317h-2.968Zm13.534,0h2.968l1.22-5.737a10.157,10.157,0,0,1,.369-1.285,5.176,5.176,0,0,1,.593-1.17,2.889,2.889,0,0,1,.913-.849,2.6,2.6,0,0,1,1.316-.326,1.669,1.669,0,0,1,.841.2,1.372,1.372,0,0,1,.565.552,1.632,1.632,0,0,1,.21.838,7.91,7.91,0,0,1-.107,1.222c-.066.4-.145.783-.225,1.173l-1.108,5.38h2.966l1.2-5.54c.087-.351.165-.752.247-1.178a7.485,7.485,0,0,0,.129-1.3,3.95,3.95,0,0,0-.467-1.956,3.155,3.155,0,0,0-1.293-1.253,4.127,4.127,0,0,0-1.962-.448,4.212,4.212,0,0,0-1.226.19,4.5,4.5,0,0,0-1.087.494,5.5,5.5,0,0,0-.919.692h-.045l.2-1.115h-2.9c-.024.186-.056.417-.109.7s-.112.6-.182.945Zm19.407-2.038a2.328,2.328,0,0,1-1.364-.362,1.955,1.955,0,0,1-.736-.955,3.629,3.629,0,0,1-.226-1.36,6.292,6.292,0,0,1,.139-1.274,6.453,6.453,0,0,1,.426-1.257,4.545,4.545,0,0,1,.7-1.077,3.194,3.194,0,0,1,.991-.76,2.827,2.827,0,0,1,1.264-.283,2.481,2.481,0,0,1,1.1.22,1.716,1.716,0,0,1,.691.582,2.5,2.5,0,0,1,.365.868,4.731,4.731,0,0,1,.11,1.054,5.506,5.506,0,0,1-.14,1.227,5.624,5.624,0,0,1-.415,1.237,4.576,4.576,0,0,1-.692,1.085,3.223,3.223,0,0,1-.967.766,2.717,2.717,0,0,1-1.244.291m1.33-9.634a7.007,7.007,0,0,0-2.675.517,6.632,6.632,0,0,0-2.141,1.422,6.458,6.458,0,0,0-1.428,2.14,6.876,6.876,0,0,0-.512,2.653,5.87,5.87,0,0,0,.623,2.782A4.29,4.29,0,0,0,328,104.013a5.782,5.782,0,0,0,2.776.637,7.184,7.184,0,0,0,2.767-.522,6.285,6.285,0,0,0,2.148-1.442,6.491,6.491,0,0,0,1.393-2.2,7.753,7.753,0,0,0,.492-2.773,5.628,5.628,0,0,0-.381-2.107,4.368,4.368,0,0,0-1.074-1.579,4.705,4.705,0,0,0-1.657-.984,6.308,6.308,0,0,0-2.113-.338m6.333,11.672h2.972l3.519-16.613h-2.965Zm12.03-2.038a2.336,2.336,0,0,1-1.364-.362,1.924,1.924,0,0,1-.734-.955,3.535,3.535,0,0,1-.228-1.36,5.994,5.994,0,0,1,.566-2.532,4.605,4.605,0,0,1,.7-1.077,3.168,3.168,0,0,1,.991-.76,2.852,2.852,0,0,1,1.265-.283,2.472,2.472,0,0,1,1.095.22,1.767,1.767,0,0,1,.695.582,2.524,2.524,0,0,1,.364.868,4.755,4.755,0,0,1,.108,1.054,5.837,5.837,0,0,1-.138,1.227,6.032,6.032,0,0,1-.417,1.237,4.714,4.714,0,0,1-.689,1.085,3.191,3.191,0,0,1-.97.766,2.716,2.716,0,0,1-1.244.291m1.327-9.634a7.016,7.016,0,0,0-2.673.517,6.674,6.674,0,0,0-2.139,1.422,6.415,6.415,0,0,0-1.424,2.14,6.912,6.912,0,0,0-.517,2.653,5.951,5.951,0,0,0,.62,2.782,4.354,4.354,0,0,0,1.782,1.791,5.807,5.807,0,0,0,2.778.637,7.2,7.2,0,0,0,2.768-.522,6.287,6.287,0,0,0,2.148-1.442,6.536,6.536,0,0,0,1.394-2.2,7.764,7.764,0,0,0,.494-2.773,5.582,5.582,0,0,0-.384-2.107,4.317,4.317,0,0,0-1.076-1.579,4.7,4.7,0,0,0-1.652-.984,6.355,6.355,0,0,0-2.12-.338m5.981,15.819a12.078,12.078,0,0,0,2.252.594,14.239,14.239,0,0,0,2.315.18,7.322,7.322,0,0,0,2.673-.445,4.942,4.942,0,0,0,1.872-1.241,6.508,6.508,0,0,0,1.224-1.942,12.723,12.723,0,0,0,.742-2.529l1.817-8.577c.078-.363.147-.687.212-.955s.119-.484.165-.643h-2.858l-.334,1.664a3.913,3.913,0,0,0-.883-1.03,3.822,3.822,0,0,0-1.182-.662,4.224,4.224,0,0,0-1.408-.234,5.237,5.237,0,0,0-2.027.388A5.025,5.025,0,0,0,361,94.137a6.236,6.236,0,0,0-1.183,1.53,7.618,7.618,0,0,0-.722,1.865,8.287,8.287,0,0,0-.248,2.021,7.052,7.052,0,0,0,.229,1.81,4.733,4.733,0,0,0,.718,1.544,3.422,3.422,0,0,0,1.233,1.073,3.837,3.837,0,0,0,1.786.4,4.686,4.686,0,0,0,1.555-.258,4.208,4.208,0,0,0,1.312-.737,4.081,4.081,0,0,0,.965-1.175h.045c-.137.519-.277,1.019-.422,1.494a8.824,8.824,0,0,1-.5,1.31,3.982,3.982,0,0,1-.726,1.044,2.955,2.955,0,0,1-1.089.692,4.806,4.806,0,0,1-1.586.25,6.114,6.114,0,0,1-1.241-.127,8.953,8.953,0,0,1-1.183-.316c-.389-.132-.773-.283-1.164-.447Zm9.15-11.122a6.937,6.937,0,0,1-.122,1.315,5.851,5.851,0,0,1-.372,1.272,4.051,4.051,0,0,1-.65,1.066,2.86,2.86,0,0,1-.94.747,2.972,2.972,0,0,1-1.259.275,1.664,1.664,0,0,1-1.08-.357,2.021,2.021,0,0,1-.611-.917,3.976,3.976,0,0,1-.194-1.271,5.912,5.912,0,0,1,.114-1.126,6.438,6.438,0,0,1,.354-1.2,4.852,4.852,0,0,1,.6-1.093,2.808,2.808,0,0,1,.869-.791,2.22,2.22,0,0,1,1.142-.307,2.115,2.115,0,0,1,1.17.324,2.092,2.092,0,0,1,.731.857,2.876,2.876,0,0,1,.248,1.211m5.738-4.435,2.018,11.968a8.657,8.657,0,0,1-.939,1.25,2.655,2.655,0,0,1-.82.634,1.931,1.931,0,0,1-.831.178,3.451,3.451,0,0,1-.747-.088,3.9,3.9,0,0,1-.563-.181l-.661,2.258a8.383,8.383,0,0,0,1.1.23,7.425,7.425,0,0,0,1.114.083,4.591,4.591,0,0,0,1.641-.28,4.235,4.235,0,0,0,1.228-.731,5.793,5.793,0,0,0,.93-1.029,13.09,13.09,0,0,0,.745-1.15l7.729-13.141h-3.255l-4.54,8.488h-.046l-1.062-8.488Zm29.263-3.631a8.988,8.988,0,0,0-1.969-.53,12.987,12.987,0,0,0-2.038-.154,8.666,8.666,0,0,0-1.741.173,6.5,6.5,0,0,0-1.568.535,4.7,4.7,0,0,0-1.28.912,4,4,0,0,0-.859,1.315,4.706,4.706,0,0,0-.314,1.741,3.838,3.838,0,0,0,.29,1.508,3.731,3.731,0,0,0,.754,1.085,6.261,6.261,0,0,0,1.032.8c.373.225.751.451,1.124.648a11.273,11.273,0,0,1,1.027.643,2.854,2.854,0,0,1,.754.758,1.837,1.837,0,0,1,.292,1.024,2.274,2.274,0,0,1-.249,1.077,2.188,2.188,0,0,1-.666.752,3.067,3.067,0,0,1-.944.434,3.941,3.941,0,0,1-1.087.149,6.3,6.3,0,0,1-1.306-.149,8.991,8.991,0,0,1-1.264-.4c-.416-.156-.82-.33-1.219-.522l-.8,2.642a16.372,16.372,0,0,0,2.17.623,11.05,11.05,0,0,0,2.24.239,10.334,10.334,0,0,0,1.965-.176,6.783,6.783,0,0,0,1.737-.555,4.677,4.677,0,0,0,1.391-.977,4.221,4.221,0,0,0,.926-1.466,5.463,5.463,0,0,0,.334-1.992,4.084,4.084,0,0,0-.289-1.587,3.867,3.867,0,0,0-.754-1.17,6.233,6.233,0,0,0-1.028-.87c-.374-.247-.751-.481-1.124-.7s-.716-.434-1.029-.654a2.986,2.986,0,0,1-.753-.719,1.591,1.591,0,0,1-.294-.922,1.453,1.453,0,0,1,.252-.841,1.734,1.734,0,0,1,.632-.543,3.317,3.317,0,0,1,.838-.3,4.409,4.409,0,0,1,.871-.087,6.062,6.062,0,0,1,1.136.1,6.9,6.9,0,0,1,1.089.28,5.835,5.835,0,0,1,.989.417ZM413.827,99.6c.087-.421.159-.841.21-1.266a10.81,10.81,0,0,0,.078-1.28,4.676,4.676,0,0,0-.586-2.417,3.59,3.59,0,0,0-1.625-1.445,6.258,6.258,0,0,0-4.575-.093,6.146,6.146,0,0,0-1.792,1.04,6.977,6.977,0,0,0-1.379,1.547,7.32,7.32,0,0,0-.892,1.895,7.019,7.019,0,0,0-.313,2.087,5.69,5.69,0,0,0,.394,2.208,4.093,4.093,0,0,0,1.118,1.558,4.85,4.85,0,0,0,1.737.917,7.736,7.736,0,0,0,2.242.3,9.878,9.878,0,0,0,1.842-.187,18.079,18.079,0,0,0,1.788-.456l.378-2.348a9.6,9.6,0,0,1-1.709.6,7.973,7.973,0,0,1-1.791.217,4.566,4.566,0,0,1-1.729-.285,2.082,2.082,0,0,1-1.069-.912,3.381,3.381,0,0,1-.366-1.686Zm-7.642-2.036a6.479,6.479,0,0,1,.677-1.4,2.931,2.931,0,0,1,1.012-.942,3.113,3.113,0,0,1,1.522-.34,1.86,1.86,0,0,1,1.409.494,1.962,1.962,0,0,1,.472,1.412c0,.132,0,.261-.015.39a3.238,3.238,0,0,1-.051.384Zm8.838,6.819h2.969l1.063-5.117a7.034,7.034,0,0,1,.409-1.356,4.826,4.826,0,0,1,.7-1.2,3.12,3.12,0,0,1,1.017-.846,2.908,2.908,0,0,1,1.379-.319,3.539,3.539,0,0,1,.585.045,3.155,3.155,0,0,1,.546.129l.618-2.905a4.968,4.968,0,0,0-.559-.088c-.19-.011-.382-.019-.571-.019a2.968,2.968,0,0,0-1.03.2,4.411,4.411,0,0,0-.967.538,4.651,4.651,0,0,0-.81.777,3.8,3.8,0,0,0-.561.9h-.042l.4-2.153h-2.837c-.087.538-.176,1.046-.266,1.535Zm11.542,0h3.279l6.666-11.41h-3.143l-4.5,8.376h-.046L427.67,92.97h-3.035Zm9.392,0h2.97l2.437-11.41H438.4Zm2.9-13.487h2.972l.619-2.836H439.48Zm13.4,2.258a10.794,10.794,0,0,0-1.367-.313,10.321,10.321,0,0,0-1.6-.129,7.178,7.178,0,0,0-2.783.536,6.133,6.133,0,0,0-2.12,1.48,6.506,6.506,0,0,0-1.355,2.227,8.093,8.093,0,0,0-.477,2.78,5.455,5.455,0,0,0,.6,2.584,4.255,4.255,0,0,0,1.684,1.714,5.28,5.28,0,0,0,2.566.62,10.716,10.716,0,0,0,1.456-.1,5.212,5.212,0,0,0,1.4-.433l.33-2.345a6.039,6.039,0,0,1-.806.312,6.132,6.132,0,0,1-.827.193,4.962,4.962,0,0,1-.778.066,2.8,2.8,0,0,1-1.254-.252,1.909,1.909,0,0,1-.772-.676,2.641,2.641,0,0,1-.394-.95,4.887,4.887,0,0,1-.106-1.088,5.272,5.272,0,0,1,.243-1.584,4.592,4.592,0,0,1,.714-1.4,3.547,3.547,0,0,1,1.163-1,3.364,3.364,0,0,1,1.578-.379,4.544,4.544,0,0,1,1.177.148,3.292,3.292,0,0,1,.994.428Zm10.81,6.446c.088-.421.161-.841.212-1.266a10.447,10.447,0,0,0,.078-1.28,4.648,4.648,0,0,0-.589-2.417,3.58,3.58,0,0,0-1.622-1.445,5.793,5.793,0,0,0-2.461-.481,5.864,5.864,0,0,0-2.113.388,6.145,6.145,0,0,0-1.792,1.04,7.023,7.023,0,0,0-1.382,1.547,7.254,7.254,0,0,0-.885,1.895,7.007,7.007,0,0,0-.318,2.087,5.7,5.7,0,0,0,.4,2.208,4.089,4.089,0,0,0,1.12,1.558,4.807,4.807,0,0,0,1.731.917,7.751,7.751,0,0,0,2.243.3,9.846,9.846,0,0,0,1.842-.187c.611-.126,1.211-.275,1.79-.456l.377-2.348a9.666,9.666,0,0,1-1.708.6,8.027,8.027,0,0,1-1.792.217,4.556,4.556,0,0,1-1.729-.285,2.084,2.084,0,0,1-1.069-.912,3.354,3.354,0,0,1-.369-1.686Zm-7.643-2.036a6.441,6.441,0,0,1,.681-1.4,2.917,2.917,0,0,1,1.013-.942,3.11,3.11,0,0,1,1.52-.34,1.848,1.848,0,0,1,1.407.494,1.95,1.95,0,0,1,.477,1.412c0,.132,0,.261-.014.39s-.031.253-.054.384Zm18.166-4.385a14.678,14.678,0,0,0-1.6-.335,10.922,10.922,0,0,0-1.635-.133,7.859,7.859,0,0,0-1.414.124,6,6,0,0,0-1.341.384,4.279,4.279,0,0,0-1.122.687,3.082,3.082,0,0,0-.775,1.028,3.323,3.323,0,0,0-.288,1.409,2.663,2.663,0,0,0,.283,1.227,3.287,3.287,0,0,0,.718.9,8.619,8.619,0,0,0,.924.7c.329.2.635.407.926.6a3.289,3.289,0,0,1,.718.646,1.289,1.289,0,0,1,.283.8,1.013,1.013,0,0,1-.175.591,1.349,1.349,0,0,1-.468.39,2.562,2.562,0,0,1-.654.215,4.113,4.113,0,0,1-.742.071,4.56,4.56,0,0,1-1.058-.129,5.333,5.333,0,0,1-.922-.321c-.286-.137-.573-.28-.853-.439l-.642,2.372a7.04,7.04,0,0,0,1.7.536,10.389,10.389,0,0,0,1.778.151,9.882,9.882,0,0,0,1.517-.115,6.442,6.442,0,0,0,1.395-.39,4.078,4.078,0,0,0,1.158-.712,3.123,3.123,0,0,0,.78-1.1,3.777,3.777,0,0,0,.29-1.537,2.666,2.666,0,0,0-.283-1.222,3.365,3.365,0,0,0-.718-.937,7.425,7.425,0,0,0-.924-.727c-.33-.22-.637-.429-.927-.624a3.5,3.5,0,0,1-.717-.6.974.974,0,0,1-.283-.651.9.9,0,0,1,.188-.563,1.189,1.189,0,0,1,.475-.351,2.769,2.769,0,0,1,.644-.19,4.43,4.43,0,0,1,.685-.047,4.762,4.762,0,0,1,1.245.16,10.7,10.7,0,0,1,1.192.367Z" transform="translate(-164.486 -73.49)" fill="#004b87"/>
</svg>
